# xmcd
#
# Track frame offsets:
#	150
#	19015
#	36810
#	55397
#	70675
#	86979
#	106085
#	125772
#	141537
#	158112
#	167907
#	184825
#	203600
#
# Disc length: 2959 seconds
#
# Revision: 2
# Processed by: cddbd v1.5.2PL0 Copyright (c) Steve Scherf et al.
# Submitted via: EasyCDDAExtractor 11.5.3.1
#
DISCID=b80b8d0d
DTITLE=Henriette and Her Hired Hands - Wanted Alive
DYEAR=1997
DGENRE=Country
TTITLE0=County Of Love
TTITLE1=Girls Night Out
TTITLE2=Those Memories
TTITLE3=Too Soon To Tell
TTITLE4=Maybe I Am
TTITLE5=One Man Woman
TTITLE6=Things You Said Today
TTITLE7=Crying
TTITLE8=Why Not Me
TTITLE9=Honky Tonk Merry
TTITLE10=Jolene
TTITLE11=Coming Home
TTITLE12=Crazy
EXTD=
EXTT0=
EXTT1=
EXTT2=
EXTT3=
EXTT4=
EXTT5=
EXTT6=
EXTT7=
EXTT8=
EXTT9=
EXTT10=
EXTT11=
EXTT12=
PLAYORDER=
